<?xml version="1.0" encoding="UTF-8"?>
<svg width="612px" height="792px" viewBox="0 0 612 792" version="1.1" xmlns="http://www.w3.org/2000/svg" xmlns:xlink="http://www.w3.org/1999/xlink">
    <!-- Generator: Sketch 51.1 (57501) - http://www.bohemiancoding.com/sketch -->
    <title>BaseLayout_P4</title>
    <desc>Created with Sketch.</desc>
    <defs>
        <polygon id="path-1" points="0.25 0.5988 48.9819 0.5988 48.9819 19.1718 0.25 19.1718"></polygon>
    </defs>
    <g id="BaseLayout_P4" stroke="none" stroke-width="1" fill="none" fill-rule="evenodd">
        <g id="HEADER" transform="translate(9.000000, 18.000000)">
            <g id="Grey-BG" transform="translate(0.000000, 2.000000)">
                <path d="M84.7231,41.26 L107.9781,43 L84.7231,44.739 L61.4711,43 L84.7231,41.26 Z M223.9221,47.779 L247.1761,49.518 L270.4321,47.779 L247.1761,46.039 L223.9221,47.779 Z M338.2151,30.788 L360.5011,29.122 L333.0211,27.067 L375.0691,23.924 L337.6221,21.123 L389.4991,17.246 L301.1611,10.638 L324.8971,8.865 L281.5601,5.623 L243.0551,8.503 L225.7371,6.248 L268.2251,3.074 L234.1761,0.527 L210.4461,2.3 L182.8971,0.24 L157.1461,2.167 L183.3101,4.125 L154.4821,6.281 L125.6591,4.125 L142.3661,2.875 L122.4061,1.382 L58.5881,6.153 L81.2021,7.844 L9.4921,13.204 L51.7231,16.362 L29.4371,18.028 L56.9151,20.083 L14.8691,23.225 L52.3141,26.027 L0.4371,29.904 L71.7311,35.237 L39.0871,37.679 L73.5471,40.254 L82.4591,39.588 L108.3751,41.527 L146.8811,38.647 L164.1801,40.899 L119.3081,44.255 L180.9061,48.859 L194.3751,47.853 L170.1281,46.039 L204.7531,43.449 L229.0211,45.264 L244.9081,44.076 L267.5301,45.767 L331.3481,40.997 L308.7361,39.306 L380.4451,33.947 L338.2151,30.788 Z" id="Fill-791" fill="#DEDFDF"></path>
                <path d="M183.4464,91.5223 L202.3374,92.9353 L183.4464,94.3483 L164.5584,92.9353 L183.4464,91.5223 Z M296.5184,96.8173 L315.4084,98.2303 L334.2994,96.8173 L315.4084,95.4043 L296.5184,96.8173 Z M389.3594,83.0163 L407.4624,81.6623 L385.1404,79.9933 L419.2964,77.4403 L388.8774,75.1653 L431.0174,72.0153 L359.2604,66.6483 L378.5414,65.2073 L343.3384,62.5743 L312.0604,64.9133 L297.9934,63.0823 L332.5064,60.5033 L304.8474,58.4343 L285.5724,59.8753 L263.1934,58.2013 L242.2764,59.7663 L263.5284,61.3573 L240.1124,63.1083 L216.6994,61.3573 L230.2704,60.3423 L214.0564,59.1293 L162.2174,63.0043 L180.5864,64.3783 L122.3354,68.7323 L156.6404,71.2973 L138.5374,72.6503 L160.8584,74.3203 L126.7034,76.8723 L157.1204,79.1483 L114.9804,82.2983 L172.8924,86.6293 L146.3764,88.6133 L174.3684,90.7053 L181.6074,90.1643 L202.6594,91.7393 L233.9374,89.3993 L247.9894,91.2293 L211.5404,93.9553 L261.5764,97.6953 L272.5174,96.8773 L252.8214,95.4043 L280.9474,93.3003 L300.6604,94.7743 L313.5654,93.8103 L331.9414,95.1833 L383.7814,91.3083 L365.4134,89.9353 L423.6634,85.5813 L389.3594,83.0163 Z" id="Fill-792" fill="#DEDFDF"></path>
                <path d="M383.6967,44.0277 L399.2767,45.1937 L383.6967,46.3577 L368.1187,45.1937 L383.6967,44.0277 Z M476.9527,48.3947 L492.5317,49.5597 L508.1117,48.3947 L492.5317,47.2287 L476.9527,48.3947 Z M553.5227,37.0117 L568.4527,35.8957 L550.0427,34.5197 L578.2127,32.4137 L553.1257,30.5367 L587.8797,27.9397 L528.6987,23.5127 L544.6007,22.3247 L515.5667,20.1527 L489.7707,22.0817 L478.1687,20.5717 L506.6337,18.4447 L483.8217,16.7387 L467.9247,17.9267 L449.4677,16.5467 L432.2157,17.8377 L449.7447,19.1497 L430.4317,20.5937 L411.1217,19.1497 L422.3147,18.3117 L408.9427,17.3117 L366.1877,20.5077 L381.3377,21.6407 L333.2957,25.2317 L361.5887,27.3477 L346.6577,28.4637 L365.0667,29.8397 L336.8987,31.9457 L361.9847,33.8227 L327.2297,36.4197 L374.9927,39.9927 L353.1237,41.6287 L376.2097,43.3537 L382.1797,42.9077 L399.5427,44.2067 L425.3387,42.2767 L436.9287,43.7857 L406.8667,46.0347 L448.1347,49.1187 L457.1577,48.4447 L440.9127,47.2287 L464.1097,45.4937 L480.3687,46.7097 L491.0117,45.9147 L506.1677,47.0477 L548.9217,43.8517 L533.7737,42.7187 L581.8147,39.1277 L553.5227,37.0117 Z" id="Fill-793" fill="#DEDFDF"></path>
                <polygon id="Fill-829" fill="#E0E1E1" points="252.514 85.889 566.408 85.889 566.408 25.247 252.514 25.247"></polygon>
            </g>
            <g id="Graphic" transform="translate(34.000000, 0.000000)">
                <g id="Group-806">
                    <path d="M12.0007,40.085 L12.0007,27.846 L19.5607,27.846 C19.5607,27.846 23.3607,29.646 29.2007,21.365 L41.8807,21.365 L46.9207,17.817 C46.9207,17.817 51.2407,11.646 55.2007,11.646 C59.1607,11.646 74.9207,4.445 74.9207,4.445 L91.9207,0.721 L112.0807,6.606 L122.8007,10.926 C122.8007,10.926 139.1707,17.014 136.9207,26.885 C136.9207,26.885 138.8807,18.665 122.8007,13.085 C122.8007,13.085 131.5207,19.446 129.7207,23.165 C129.7207,23.165 139.0807,29.616 140.5207,34.852 C140.5207,34.852 161.4007,41.043 169.6807,26.885 C169.6807,26.885 166.7307,33.576 163.9207,34.852 C163.9207,34.852 183.3607,46.443 202.0807,26.885 C202.0807,26.885 188.6007,38.646 189.4807,43.506 L136.2007,41.886 C136.2007,41.886 136.7527,18.369 103.5367,16.325 C70.3207,14.281 66.7207,30.905 69.4207,37.205 L12.0007,40.085 Z" id="Fill-794" fill="#FFFFFF"></path>
                    <path d="M106.7205,38.6456 C106.7205,38.6456 112.8005,16.3256 133.6805,41.8856 C133.6805,41.8856 119.1115,13.4456 103.5365,37.9256 L106.7205,38.6456 Z" id="Fill-796" fill="#FFFFFF"></path>
                    <path d="M145.7473,45.551 C146.5403,48.992 146.9583,52.728 146.9063,56.795 C146.9063,56.795 147.5353,51.994 145.7473,45.551 Z M47.5453,30.034 L47.3773,30.351 L47.0653,30.528 L47.3833,30.696 L47.5613,31.007 L47.7273,30.69 L48.0403,30.514 L47.7223,30.345 L47.5453,30.034 Z M27.5063,43.469 L27.2053,44.041 L26.6433,44.361 L27.2153,44.662 L27.5343,45.225 L27.8353,44.653 L28.3983,44.333 L27.8263,44.031 L27.5063,43.469 Z M49.4703,27.856 L49.0523,28.651 L48.2723,29.093 L49.0663,29.511 L49.5103,30.291 L49.9273,29.497 L50.7063,29.054 L49.9133,28.636 L49.4703,27.856 Z M46.4723,31.056 L46.3143,31.359 L46.0183,31.526 L46.3193,31.685 L46.4873,31.98 L46.6463,31.679 L46.9413,31.51 L46.6413,31.352 L46.4723,31.056 Z M22.0673,43.758 L21.7973,44.27 L21.2933,44.556 L21.8063,44.825 L22.0913,45.328 L22.3603,44.817 L22.8643,44.53 L22.3523,44.261 L22.0673,43.758 Z M23.9323,44.689 L23.7323,45.072 L23.3553,45.284 L23.7383,45.485 L23.9513,45.863 L24.1523,45.479 L24.5283,45.266 L24.1453,45.065 L23.9323,44.689 Z M23.6283,46.153 L23.4803,46.435 L23.2013,46.594 L23.4853,46.743 L23.6423,47.023 L23.7933,46.739 L24.0723,46.58 L23.7883,46.43 L23.6283,46.153 Z M169.3673,41.258 C169.3723,41.56 169.6213,41.802 169.9243,41.796 C170.2263,41.792 170.4673,41.542 170.4623,41.24 C170.4573,40.938 170.2083,40.696 169.9053,40.702 C169.6033,40.706 169.3623,40.956 169.3673,41.258 Z M175.0423,36.603 C175.2943,36.599 175.4953,36.392 175.4913,36.14 C175.4873,35.888 175.2793,35.686 175.0273,35.692 C174.7753,35.695 174.5743,35.903 174.5783,36.155 C174.5823,36.407 174.7903,36.607 175.0423,36.603 Z M171.7013,38.848 C172.2053,38.84 172.6073,38.425 172.5993,37.921 C172.5913,37.417 172.1763,37.014 171.6713,37.023 C171.1673,37.031 170.7663,37.446 170.7743,37.95 C170.7823,38.454 171.1973,38.856 171.7013,38.848 Z M201.0893,21.764 C201.3403,21.76 201.5413,21.552 201.5373,21.3 C201.5333,21.048 201.3253,20.848 201.0743,20.852 C200.8213,20.855 200.6203,21.063 200.6253,21.315 C200.6283,21.568 200.8363,21.768 201.0893,21.764 Z M197.4983,25.472 C198.0523,25.463 198.4933,25.006 198.4843,24.453 C198.4763,23.898 198.0193,23.456 197.4653,23.465 C196.9103,23.474 196.4693,23.93 196.4783,24.485 C196.4863,25.039 196.9433,25.481 197.4983,25.472 Z M193.9903,28.723 C193.9933,28.975 194.2023,29.176 194.4533,29.172 C194.7063,29.167 194.9073,28.96 194.9033,28.709 C194.8993,28.456 194.6913,28.255 194.4393,28.26 C194.1873,28.264 193.9863,28.471 193.9903,28.723 Z M194.6963,27.246 L194.9773,26.714 L195.4993,26.417 L194.9673,26.137 L194.6703,25.614 L194.3893,26.146 L193.8673,26.444 L194.3993,26.724 L194.6963,27.246 Z M197.2793,28.943 L197.5923,28.348 L198.1773,28.017 L197.5823,27.704 L197.2503,27.119 L196.9373,27.714 L196.3533,28.046 L196.9473,28.359 L197.2793,28.943 Z M218.8803,12.758 L218.5483,12.173 L218.2353,12.768 L217.6513,13.1 L218.2463,13.413 L218.5783,13.997 L218.8903,13.403 L219.4753,13.071 L218.8803,12.758 Z M214.2053,14.528 L213.6743,15.537 L212.6823,16.101 L213.6913,16.632 L214.2553,17.624 L214.7863,16.615 L215.7793,16.051 L214.7693,15.52 L214.2053,14.528 Z M216.4413,17.349 L216.2643,17.686 L215.9333,17.874 L216.2703,18.05 L216.4583,18.382 L216.6353,18.045 L216.9663,17.857 L216.6293,17.681 L216.4413,17.349 Z M214.2693,18.478 L213.9043,19.173 L213.2213,19.56 L213.9163,19.925 L214.3033,20.609 L214.6693,19.913 L215.3503,19.527 L214.6563,19.161 L214.2693,18.478 Z M182.1193,40.757 C175.7813,39.943 167.3463,39.33 161.4623,40.689 C160.0323,41.381 157.6173,42.883 158.8353,44.713 C159.9873,46.443 175.6853,44.607 182.1193,40.757 Z M210.5043,11.39 C210.5043,11.39 212.8173,19.019 211.6283,24.514 C211.6283,24.514 211.7283,19.403 209.7413,20.712 C207.7553,22.021 199.6563,29.271 205.9213,32.82 C205.9213,32.82 191.8723,33.229 190.9223,42.189 C190.9223,42.189 187.7383,41.524 183.2543,40.909 C182.6693,41.32 181.9523,41.74 181.0643,42.165 C172.7363,46.145 151.5423,50.658 157.6433,42.084 C154.8523,43.654 153.5873,46.216 155.0923,50.249 C155.0923,50.249 150.2093,41.749 162.9443,39.171 C162.9443,39.171 160.0043,37.94 161.6283,36.82 C161.6283,36.82 173.4783,41.12 184.2093,39.032 C185.2993,37.62 185.0843,36.022 182.7623,34.289 C182.7623,34.289 186.3663,36.205 185.1853,38.824 C188.1153,38.14 190.9313,36.955 193.3613,35.031 C193.3613,35.031 189.5463,36.187 187.7283,36.581 C187.7283,36.581 191.1293,35.298 195.3943,32.238 L195.1113,31.74 L193.7233,31.009 L195.0863,30.235 L195.8183,28.846 L196.5923,30.21 L197.4533,30.663 C202.3523,26.687 207.8103,20.487 210.5043,11.39 Z M135.4173,43.887 C135.4073,43.916 135.3983,43.943 135.3873,43.969 C135.3993,43.943 135.4073,43.914 135.4173,43.887 Z M135.4243,43.868 C135.4213,43.875 135.4203,43.881 135.4173,43.887 C135.4203,43.881 135.4223,43.875 135.4243,43.868 Z M135.3873,43.969 C135.3063,44.163 135.2123,44.356 135.1033,44.548 C135.1033,44.548 135.2493,44.342 135.3873,43.969 Z M69.3633,39.185 L69.0443,39.791 L68.4483,40.13 L69.0553,40.449 L69.3933,41.045 L69.7123,40.439 L70.3073,40.1 L69.7023,39.78 L69.3633,39.185 Z M66.7033,36.288 L66.4213,36.824 L65.8943,37.122 L66.4293,37.404 L66.7293,37.931 L67.0113,37.394 L67.5373,37.096 L67.0023,36.814 L66.7033,36.288 Z M63.6723,37.457 L63.2273,38.304 L62.3943,38.778 L63.2423,39.221 L63.7133,40.054 L64.1593,39.206 L64.9913,38.735 L64.1443,38.289 L63.6723,37.457 Z M140.9163,28.374 L141.2693,27.705 L141.9263,27.331 L141.2573,26.979 L140.8833,26.321 L140.5313,26.991 L139.8743,27.364 L140.5433,27.717 L140.9163,28.374 Z M167.5473,32.11 L167.3353,32.512 L166.9413,32.736 L167.3433,32.948 L167.5673,33.343 L167.7783,32.94 L168.1733,32.716 L167.7713,32.505 L167.5473,32.11 Z M160.9903,30.621 L161.5263,29.602 L162.5283,29.032 L161.5093,28.496 L160.9403,27.494 L160.4033,28.513 L159.4023,29.082 L160.4213,29.62 L160.9903,30.621 Z M155.6653,33.554 L155.9333,33.044 L156.4343,32.76 L155.9243,32.492 L155.6403,31.991 L155.3713,32.501 L154.8713,32.786 L155.3803,33.053 L155.6653,33.554 Z M152.5153,32.677 L152.8553,32.857 L153.0453,33.193 L153.2253,32.852 L153.5603,32.661 L153.2193,32.481 L153.0283,32.146 L152.8493,32.487 L152.5153,32.677 Z M151.8553,31.391 L152.2573,30.628 L153.0063,30.202 L152.2433,29.8 L151.8173,29.05 L151.4163,29.813 L150.6653,30.24 L151.4293,30.642 L151.8553,31.391 Z M148.6913,33.287 L149.2283,32.268 L150.2293,31.699 L149.2103,31.162 L148.6403,30.16 L148.1043,31.179 L147.1033,31.749 L148.1223,32.285 L148.6913,33.287 Z M115.9833,21.828 L116.4423,20.955 L117.2993,20.468 L116.4263,20.008 L115.9393,19.152 L115.4803,20.023 L114.6223,20.512 L115.4953,20.97 L115.9833,21.828 Z M113.8453,17.952 L113.5103,18.587 L112.8863,18.943 L113.5213,19.277 L113.8763,19.901 L114.2103,19.265 L114.8343,18.91 L114.1993,18.575 L113.8453,17.952 Z M129.6503,21.252 C128.1123,16.609 120.8453,9.363 91.4823,6.711 C91.4823,6.711 99.1453,7.427 108.7703,10.596 C108.6993,10.761 108.6563,10.942 108.6593,11.133 C108.6703,11.855 109.2643,12.43 109.9863,12.418 C110.5853,12.408 111.0613,11.99 111.2073,11.438 C117.2303,13.62 123.8033,16.759 129.6503,21.252 Z M113.0613,14.002 C113.0593,13.882 112.9603,13.786 112.8403,13.788 C112.7193,13.79 112.6233,13.889 112.6253,14.009 C112.6273,14.13 112.7273,14.226 112.8473,14.224 C112.9673,14.222 113.0633,14.123 113.0613,14.002 Z M111.9583,13.149 C111.9563,12.969 111.8073,12.825 111.6273,12.827 C111.4463,12.83 111.3023,12.98 111.3053,13.16 C111.3083,13.34 111.4563,13.484 111.6373,13.48 C111.8183,13.477 111.9623,13.329 111.9583,13.149 Z M106.8073,11.053 C106.8023,10.754 106.5543,10.513 106.2533,10.519 C105.9523,10.523 105.7133,10.771 105.7183,11.071 C105.7233,11.372 105.9703,11.612 106.2703,11.607 C106.5723,11.602 106.8123,11.355 106.8073,11.053 Z M105.6283,12.27 C105.6243,11.97 105.3763,11.73 105.0753,11.735 C104.7743,11.739 104.5353,11.988 104.5403,12.287 C104.5443,12.589 104.7923,12.828 105.0923,12.824 C105.3933,12.819 105.6333,12.571 105.6283,12.27 Z M103.0943,10.46 C103.0903,10.16 102.8423,9.919 102.5413,9.924 C102.2403,9.929 102.0003,10.177 102.0053,10.478 C102.0103,10.779 102.2583,11.018 102.5593,11.013 C102.8593,11.009 103.1003,10.761 103.0943,10.46 Z M100.5513,10.284 L100.0773,10.034 L99.8133,9.569 L99.5643,10.042 L99.0993,10.307 L99.5723,10.557 L99.8363,11.021 L100.0853,10.549 L100.5513,10.284 Z M98.0923,10.903 L97.6193,10.655 L97.3553,10.19 L97.1063,10.664 L96.6413,10.926 L97.1143,11.175 L97.3783,11.64 L97.6273,11.168 L98.0923,10.903 Z M108.3963,8.306 C108.3963,8.306 97.5283,2.927 80.2383,4.513 C80.2383,4.513 76.3723,7.841 70.7163,8.259 C70.7163,8.259 59.2393,12.364 53.5603,18.118 C53.5603,18.118 56.1363,15.791 58.6533,16.513 C58.6533,16.513 82.9643,-2.065 108.3963,8.306 Z M54.7493,23.619 C55.8453,22.523 62.6783,15.78 62.6783,15.78 C62.6783,15.78 55.0963,21.453 50.1803,22.133 C47.9993,22.436 43.7893,22.157 38.7153,22.792 C35.5973,24.355 30.8603,26.606 30.6673,25.968 C30.5543,25.596 30.9613,24.964 31.4973,24.333 C26.9643,25.749 22.2073,28.194 17.8343,32.467 C17.8343,32.467 15.4223,34 16.0123,34.338 C16.6033,34.675 17.1923,35.013 17.1923,35.013 C17.1923,35.013 14.1563,37.035 14.9983,38.3 C15.8433,39.564 23.1113,34.138 23.1113,34.138 C23.1113,34.138 19.8543,37.695 17.2083,39.532 C14.5603,41.369 14.6433,44.235 15.1313,45.955 C15.1313,45.955 16.1093,49.989 21.0493,48.875 L20.7503,48.35 L19.7953,47.847 L20.7333,47.314 L21.2373,46.36 L21.7703,47.297 L22.7253,47.799 L21.7863,48.333 L21.5703,48.744 C21.8493,48.664 22.1293,48.582 22.4313,48.471 C28.5883,46.196 36.2093,47.987 39.4473,48.679 C42.6833,49.372 46.7493,44.618 48.7573,39.847 C48.7573,39.847 49.7353,39.998 51.0343,38.331 C51.0343,38.331 49.9883,40.927 50.6613,41.939 C51.3363,42.951 52.8873,42.21 53.2083,41.485 L52.4843,40.068 C52.4843,40.068 54.9293,38.803 56.4653,35.735 C58.0003,32.666 56.5093,29.496 55.3203,28.206 C55.3203,28.206 56.4843,29.294 56.9053,29.927 C56.9053,29.927 57.5913,24.429 60.5093,22.01 C60.5093,22.01 55.1703,25.348 54.3273,25.726 C53.4833,26.106 53.6523,24.715 54.7493,23.619 Z M49.0603,45.934 C43.2763,52.325 37.8963,49.809 37.8963,49.809 C43.3133,54.652 49.0603,45.934 49.0603,45.934 Z M46.9313,18.989 C46.9353,19.229 47.1333,19.419 47.3743,19.416 C47.6143,19.412 47.8063,19.215 47.8023,18.974 C47.7983,18.734 47.6013,18.541 47.3603,18.545 C47.1193,18.549 46.9273,18.747 46.9313,18.989 Z M49.9393,16.434 C49.9453,16.795 50.2433,17.083 50.6033,17.077 C50.9643,17.072 51.2513,16.774 51.2453,16.414 C51.2393,16.053 50.9433,15.765 50.5823,15.771 C50.2213,15.777 49.9343,16.074 49.9393,16.434 Z M51.2663,17.72 C51.2703,17.961 51.4693,18.153 51.7093,18.147 C51.9503,18.144 52.1413,17.947 52.1383,17.706 C52.1343,17.465 51.9363,17.273 51.6953,17.278 C51.4553,17.281 51.2623,17.479 51.2663,17.72 Z M53.3043,15.727 C52.9433,15.734 52.6553,16.029 52.6613,16.39 C52.6673,16.751 52.9643,17.04 53.3253,17.033 C53.6863,17.028 53.9743,16.73 53.9673,16.369 C53.9623,16.009 53.6643,15.721 53.3043,15.727 Z M52.0843,13.967 L52.7663,14.327 L53.1473,14.998 L53.5053,14.315 L54.1773,13.934 L53.4943,13.575 L53.1133,12.903 L52.7543,13.586 L52.0843,13.967 Z M146.1823,39.03 C145.9093,38.778 144.6973,38.223 142.9243,37.38 C144.1053,39.898 145.0693,42.611 145.7473,45.551 C145.0113,42.899 143.8543,39.968 142.0843,36.98 C138.8743,35.438 134.2613,33.097 129.8993,29.999 C134.8373,33.845 142.5173,40.319 141.7763,42.855 C141.7763,42.855 141.3993,41.851 140.6773,42.177 C140.0353,42.466 137.9463,45.024 135.4933,43.668 C135.4703,43.735 135.4503,43.802 135.4243,43.868 C135.4453,43.804 135.4673,43.736 135.4863,43.664 C135.1883,43.498 134.8853,43.286 134.5783,42.992 C134.5783,42.992 134.9873,43.217 135.5503,43.388 C135.9133,41.581 135.3643,37.868 127.2633,33.722 C127.2633,33.722 124.5193,33.402 124.3713,35.594 C124.3713,35.594 115.7213,31.17 115.2273,34.463 C114.7323,37.757 119.4973,38.958 119.4973,38.958 L110.3763,39.288 C110.3763,39.288 109.5733,34.737 112.6133,30.855 C112.6133,30.855 112.4633,32.865 114.2793,32.289 C116.0953,31.712 120.0463,27.632 118.9093,25.095 C118.9093,25.095 122.9473,26.489 125.1693,28.462 C127.2583,30.315 137.3243,37.359 135.5873,43.398 C136.7273,43.735 138.4783,43.829 138.8833,41.43 C139.3793,38.481 131.6613,31.54 127.8083,28.436 C127.6993,28.349 127.5903,28.262 127.4813,28.174 C127.3023,28.032 127.1333,27.898 126.9763,27.778 C127.0463,27.829 127.1243,27.887 127.2003,27.944 C124.7493,25.942 122.5033,23.684 120.8013,21.172 C120.8013,21.172 128.6743,28.891 139.0803,32.657 C136.8203,29.859 133.9333,27.099 130.2313,24.56 C130.0953,24.859 129.9243,25.134 129.7023,25.375 C129.7023,25.375 129.8633,25.005 129.9563,24.368 C121.7163,18.804 109.5383,14.331 91.5653,12.866 C91.5653,12.866 75.6293,12.522 76.4863,20.499 C76.4863,20.499 76.2163,22.724 79.6213,23.671 C79.6213,23.671 76.0463,23.568 73.9223,23.011 C73.9223,23.011 74.3443,21.998 73.3833,21.982 C72.4223,21.965 59.3673,30.44 59.9893,36.528 C59.9893,36.528 63.2763,36.529 66.3493,30.393 C66.3493,30.393 64.8453,34.826 64.0023,36.85 C64.0023,36.85 59.8013,38.332 58.8743,41.873 C57.9453,45.414 57.0343,46.898 57.0343,46.898 C57.0343,46.898 41.6923,59.735 28.3753,61.343 C28.3753,61.343 22.4323,62.084 18.2723,59.384 L20.6743,59.284 C20.6743,59.284 11.4383,57.82 7.5033,52.075 C3.5683,46.328 -0.5877,33.971 0.8513,26.145 C0.8513,26.145 1.7413,33.278 4.4383,37.165 C4.4383,37.165 7.0213,14.312 26.3173,1.243 C26.3173,1.243 21.0643,7.53 21.1873,10.133 C21.1873,10.133 19.1073,9.587 16.6803,14.315 C14.2513,19.043 14.4713,27.264 21.0093,26.45 C27.5463,25.635 29.1083,18.801 28.0453,15.11 C28.0453,15.11 29.1873,18.037 31.8573,17.19 C34.5253,16.343 37.0163,14.081 37.0163,14.081 C37.0163,14.081 35.4843,19.923 45.6543,17.422 L42.7333,17.068 C42.7333,17.068 57.4703,5.879 65.9833,2.456 C65.9833,2.456 58.7853,6.538 54.1303,10.407 C54.1303,10.407 77.2203,-3.293 100.4723,1.892 C101.1333,2.039 101.7593,2.21 102.3993,2.371 L102.3153,2.328 C102.3153,2.328 102.5063,2.386 102.8493,2.484 C103.4633,2.642 104.0693,2.804 104.6633,2.975 C108.5853,3.997 116.4353,5.783 120.4363,4.883 C120.4363,4.883 117.0023,6.123 117.4493,7.31 C117.8973,8.497 125.0373,11.022 125.0373,11.022 C125.0373,11.022 122.9683,11.636 124.8893,13.575 L124.8503,13.555 C128.0973,16.545 129.9823,19.517 130.4383,21.875 C134.3303,24.985 137.8613,28.717 140.6493,33.188 C149.1533,35.861 159.1053,35.642 167.7863,26.574 C167.7863,26.574 163.4303,32.43 163.7653,33.659 C164.1013,34.889 167.1173,35.058 167.1173,35.058 L167.9783,36.857 C167.9783,36.857 160.7033,33.133 153.8953,37.522 C153.8953,37.522 154.4203,38.819 158.2313,38.073 C158.2313,38.073 157.6503,38.508 155.2463,38.898 C152.8443,39.289 150.7983,39.635 153.7033,42.541 C153.7033,42.541 150.5403,41.937 145.2323,40.146 C145.2323,40.146 147.3113,40.068 146.1823,39.03 Z M125.9113,26.998 C126.1283,27.138 126.4983,27.407 126.9763,27.778 C126.3103,27.284 125.9113,26.998 125.9113,26.998 Z" id="Fill-798" fill="#000000"></path>
                    <path d="M23.757,27.3599 C23.757,27.3599 17.219,32.0029 19.02,33.6129 C20.82,35.2229 23.662,32.1919 23.662,32.1919 C23.662,32.1919 22.81,34.3709 23.662,34.6549 C24.515,34.9389 27.641,31.5289 32.852,33.0449 C32.852,33.0449 28.115,33.2339 29.157,36.1709 L12.388,37.2129 L12.578,32.8549 C12.578,32.8549 19.115,27.5499 23.757,27.3599" id="Fill-800" fill="#000000"></path>
                    <path d="M47.2839,35.2805 C47.2839,35.2805 50.9389,35.3665 52.3309,32.6705 C52.3309,32.6705 52.6779,33.8005 53.8099,33.4525 C54.9409,33.1055 56.3329,31.3645 55.6369,29.6245 C55.6369,29.6245 56.9419,31.6265 55.8979,33.6275 C55.8979,33.6275 54.2439,34.4975 54.3319,35.5415 L47.2839,35.2805 Z" id="Fill-802" fill="#000000"></path>
                    <path d="M18.7542,33.2014 C18.7542,33.2014 17.7842,31.2284 19.5342,28.1664 C19.5342,28.1664 18.4862,31.0784 19.9092,31.7284 L18.7542,33.2014 Z" id="Fill-804" fill="#FFFFFF"></path>
                </g>
                <polygon id="Fill-807" fill="#FFFFFF" points="38.7155 22.7921 43.4085 19.7911 39.3465 23.2291"></polygon>
            </g>
            <g id="Banner" transform="translate(22.000000, 35.000000)">
                <g id="Group-5" transform="translate(0.000000, 3.000000)">
                    <polygon id="Fill-813" fill="#FFFFFF" points="0.2875 9.0024 0.2875 46.5024 35.7875 41.8634 35.7875 4.3624"></polygon>
                    <polygon id="Stroke-814" stroke="#000000" stroke-width="1.375" points="0.2875 9.0024 0.2875 46.5024 35.7875 41.8634 35.7875 4.3634"></polygon>
                    <path d="M1.0638,43.7183 L35.7878,38.7933 M1.0638,11.5113 L35.7878,7.0933" id="Stroke-815" stroke="#000000" stroke-width="0.75"></path>
                    <polygon id="Fill-816" fill="#C3C4C6" points="35.7875 4.3638 11.5685 0.7808 11.5685 38.2808 35.7875 41.8638"></polygon>
                    <polygon id="Stroke-817" stroke="#000000" stroke-width="1.375" points="35.7875 4.3638 11.5685 0.7808 11.5685 38.2808 35.7875 41.8638"></polygon>
                </g>
                <g id="Group-828" transform="translate(11.000000, 0.000000)">
                    <path d="M219.6078,41.2808 C157.8548,52.5308 62.3218,30.0308 0.5688,41.2808 L0.5688,3.7808 C62.3218,-7.4692 157.8548,15.0308 219.6078,3.7808 L219.6078,41.2808 Z" id="Fill-818" fill="#FFFFFF"></path>
                    <path d="M220.4857,37.6577 C220.4857,37.6577 199.9857,46.3237 105.8197,37.9907 C39.3097,32.1047 6.1017,37.2637 0.9637,38.1637 M219.6077,6.7027 C219.6077,6.7027 199.7357,14.7407 105.5697,6.4077 C39.0597,0.5217 5.8517,5.6817 0.7137,6.5807" id="Stroke-820" stroke="#000000" stroke-width="0.75"></path>
                    <path d="M219.6078,41.2808 C157.8548,52.5308 62.3218,30.0308 0.5688,41.2808 L0.5688,3.7808 C62.3218,-7.4692 157.8548,15.0308 219.6078,3.7808 L219.6078,41.2808 Z" id="Stroke-822" stroke="#000000" stroke-width="1.375"></path>
                    <path d="M533.1275,5.2893 L533.1275,43.4313 C547.6945,43.3463 549.5895,43.4313 552.0735,40.2033 L552.0735,2.7033 C547.4145,5.1773 542.6005,5.2523 533.1275,5.2893 Z" id="Stroke-824" stroke="#000000" stroke-width="1.375"></path>
                    <path d="M532.5225,8.1243 C548.7575,8.0703 550.2095,6.9483 551.6795,5.8213 M533.1255,40.3173 C552.7275,42.5483 551.0575,36.7383 551.9295,36.5633" id="Stroke-826" stroke="#000000" stroke-width="0.75"></path>
                </g>
            </g>
            <g id="Logo" transform="translate(178.000000, 2.000000)">
                <path d="M49.4958,18.9182 C49.7758,18.9182 49.7758,19.3302 49.4958,19.3302 L49.1118,19.3302 L49.1118,18.9182 L49.4958,18.9182 Z M49.7718,19.6412 C50.4258,19.4932 50.2918,18.4912 49.4958,18.4912 L48.6358,18.4912 L48.6358,20.2952 L49.1118,20.2952 L49.1118,19.7342 L49.2788,19.7342 L49.7078,20.2952 L50.2188,20.2952 L50.2188,20.1912 L49.7718,19.6412 Z M49.3428,20.8032 C50.1918,20.8032 50.6718,20.1812 50.6718,19.3942 C50.6718,18.6092 50.1918,17.9882 49.3428,17.9882 C48.4988,17.9882 48.0188,18.6092 48.0148,19.3942 C48.0188,20.1812 48.4988,20.8032 49.3428,20.8032 Z M51.0988,19.3942 C51.0988,20.3552 50.4688,21.1642 49.3438,21.1642 C48.2228,21.1642 47.5928,20.3552 47.5928,19.3942 C47.5928,18.4362 48.2228,17.6252 49.3438,17.6252 C50.4688,17.6252 51.0988,18.4362 51.0988,19.3942 Z" id="Fill-558" fill="#000000"></path>
                <g id="Group-562" transform="translate(0.000000, 2.000000)">
                    <mask id="mask-2" fill="white">
                        <use xlink:href="#path-1"></use>
                    </mask>
                    <g id="Clip-561"></g>
                    <path d="M44.4739,2.7418 C43.2129,2.0798 41.9279,1.7598 40.1759,1.6898 L40.1759,1.6758 L36.6619,1.6758 C33.8809,1.6758 32.5629,1.6388 31.5979,1.4178 C30.7649,1.2258 30.0189,0.7418 30.0109,0.7388 L29.7979,0.5988 L29.8209,0.8508 C29.8259,0.9318 30.0179,2.8168 32.2719,4.4608 C32.7059,4.7748 33.0109,5.0828 33.0109,6.1888 L33.0109,6.9198 C33.4929,6.6218 34.0249,6.3588 34.6139,6.1358 C34.4159,6.3078 34.1739,6.5658 33.9699,6.8448 C34.3609,6.5878 34.8499,6.3708 35.6489,6.2288 C36.7059,6.0418 37.4779,6.1238 37.8859,6.2018 L37.8859,5.9248 L39.8509,5.9248 C42.4239,5.9248 43.9019,7.5688 43.9019,10.4378 C43.9019,13.2868 42.4239,14.9188 39.8509,14.9188 L39.0819,14.9188 C39.7609,15.5378 40.1869,16.3898 40.1869,17.3318 C40.1869,18.0098 39.9609,18.6358 39.5879,19.1668 C42.0299,19.1448 43.5939,18.7088 45.2829,17.5828 C46.0199,17.0858 46.6509,16.5088 47.1599,15.8668 C48.3179,14.4218 48.9819,12.4238 48.9819,10.3898 C48.9819,7.0798 47.2959,4.2208 44.4739,2.7418 M33.9049,14.9818 C34.0159,14.8228 34.0379,14.6198 33.9669,14.4238 L33.4039,12.8738 L34.8229,13.7158 C34.9569,13.7958 35.0799,13.8938 35.1959,13.9998 L36.0599,13.9358 C36.7099,13.8748 37.3299,13.9728 37.8859,14.1848 L37.8859,9.7678 C37.5709,9.8768 37.3249,9.9978 37.2119,10.0998 L36.8489,10.4288 L36.4589,10.1318 C36.2069,9.9398 35.8309,9.8298 35.4289,9.8298 C34.7689,9.8298 34.1259,10.1148 33.7099,10.5908 C33.4539,10.8848 33.2229,11.1888 33.0109,11.4898 L33.0109,14.9948 C33.3569,15.2588 33.7179,15.2498 33.9049,14.9818 M16.4059,14.7398 L15.8589,15.5028 L16.0539,13.3478 C16.2129,11.5948 17.2909,10.3288 18.0449,9.6408 C17.8929,9.6558 17.7299,9.6788 17.5479,9.7158 L15.6169,10.1148 L17.0099,8.7198 C17.4879,8.2428 18.1539,7.8888 18.7409,7.5758 C18.8059,7.5408 18.8779,7.5028 18.9489,7.4638 C18.2639,5.4388 16.8689,3.7608 14.9259,2.7418 C13.6639,2.0798 12.3789,1.7598 10.6279,1.6898 L10.6279,1.6758 L7.1139,1.6758 C4.3329,1.6758 3.0139,1.6388 2.0489,1.4178 C1.2179,1.2258 0.4699,0.7418 0.4629,0.7388 L0.2499,0.5988 L0.2719,0.8508 C0.2789,0.9318 0.4679,2.8168 2.7229,4.4608 C3.1569,4.7748 3.4629,5.0828 3.4629,6.1888 L3.4629,16.2778 C3.4629,17.3578 3.2519,17.6588 2.7479,17.9628 C2.2209,18.2788 1.0909,18.9418 1.0909,18.9428 L0.6989,19.1718 L9.8409,19.1718 C12.4019,19.1718 13.9999,18.7408 15.7329,17.5828 C15.9779,17.4198 16.1989,17.2368 16.4199,17.0548 C16.2929,16.2708 16.3009,15.4828 16.4059,14.7398 M37.8859,6.8688 L37.8859,6.3858 C37.5759,6.4868 37.1329,6.6408 36.9369,6.7558 C37.2619,6.7558 37.5779,6.8018 37.8859,6.8688 M10.2999,14.9188 L8.3369,14.9188 L8.3369,5.9248 L10.2999,5.9248 C12.8749,5.9248 14.3519,7.5688 14.3519,10.4378 C14.3519,13.2868 12.8749,14.9188 10.2999,14.9188" id="Fill-560" fill="#000000" mask="url(#mask-2)"></path>
                </g>
                <path d="M36.0157,17.1049 C36.2877,17.1509 36.7947,17.4929 36.7947,17.9809 C36.7947,18.2729 36.6597,18.4999 36.3817,18.6749 C36.2607,18.7519 36.1167,18.8139 35.9607,18.8609 C36.0437,18.5839 36.0837,18.2819 36.0727,17.9649 C36.0527,17.4079 36.0157,17.1049 36.0157,17.1049 M35.5817,10.4739 C32.9797,10.5989 30.7397,12.8149 29.5927,14.3719 C29.7977,14.4409 30.0077,14.5349 30.2127,14.6999 C30.4537,14.8939 30.8097,15.1849 31.1897,15.4989 C31.4917,14.8299 32.1877,13.4389 33.2657,12.2029 C34.2347,11.0909 35.9277,10.9859 36.8157,11.6619 C37.3887,11.1449 39.3597,10.6599 40.3977,10.9549 C39.7647,10.2669 38.4217,9.3459 36.9357,9.3459 C35.7127,9.3459 35.0207,9.9459 34.8447,9.6769 C34.6187,9.3299 35.6737,8.8189 35.6737,8.8189 C34.2277,8.8779 33.1757,10.5789 32.7377,10.3669 C32.4777,10.2419 33.1287,9.4199 33.1287,9.4199 C31.8067,10.1879 30.6987,11.8149 30.4677,12.8059 C31.6847,11.3159 34.0457,10.2489 35.5817,10.4739 M29.5687,18.8969 C29.0537,18.4439 28.2837,17.8039 27.7007,17.3399 C27.0417,18.4699 25.6347,19.9429 24.2087,19.9429 C21.5837,19.9429 20.2687,16.2279 23.2117,13.1909 C23.0407,13.1349 22.8717,13.1279 22.8147,13.1279 C22.5637,13.1279 22.3167,13.1949 22.1547,13.3069 L20.9977,14.1059 L21.2597,12.6329 C21.2857,12.5539 21.3167,12.4769 21.3517,12.4009 C20.6837,12.7329 20.0267,13.2059 19.7787,13.4769 L18.6407,14.7249 L18.7627,12.9729 C18.7877,12.8369 18.8157,12.7039 18.8417,12.5779 C18.9017,12.2939 18.9747,11.9419 18.9297,11.8239 C18.9147,11.7879 18.8837,11.7569 18.8477,11.7309 C18.3047,12.1489 16.8157,13.4659 16.6417,15.4009 C16.6417,15.4009 16.9297,14.9949 17.1797,14.8999 C17.3447,14.8359 17.4897,14.9179 17.3317,15.4009 C17.2697,15.5899 15.8357,19.4739 18.6567,22.1599 C18.6567,22.1599 18.3487,21.3699 18.5347,21.1299 C18.6247,21.0139 18.7437,21.0029 18.9067,21.2129 C19.0277,21.3729 19.1557,21.5279 19.2907,21.6819 L19.2917,21.6839 C19.5257,21.9479 19.7827,22.1969 20.0617,22.4129 C20.9067,23.0049 22.0527,23.4799 23.3567,23.4799 C26.8477,23.4799 28.6967,21.0729 29.7227,19.0519 C29.6777,18.9989 29.6267,18.9479 29.5687,18.8969 M39.5977,19.3319 C39.5977,17.6519 37.9687,16.3499 36.1147,16.5229 C36.6437,16.6129 37.3847,17.1759 37.3847,17.9809 C37.3847,19.2919 35.7487,19.6959 34.8437,19.4919 C35.8037,18.8259 35.6767,16.9089 34.5217,16.2229 C34.9117,17.2969 33.7397,18.3649 32.5987,17.4279 C31.9647,16.9079 30.4977,15.6849 29.8427,15.1589 C29.1897,14.6329 28.4227,14.9389 28.1197,14.7099 C27.7757,14.4479 27.9957,13.7119 27.5257,13.4389 C27.1317,13.2109 26.7447,13.3379 26.2857,13.1859 C25.8707,13.0479 25.5597,12.7249 25.6137,12.2889 C25.4367,12.5999 25.4257,13.1419 25.7407,13.5079 C26.0537,13.8709 26.5757,14.0939 26.7917,14.4919 C27.0707,15.0079 26.6007,15.7239 27.8427,16.6969 C28.4367,17.1629 29.3567,17.9259 29.9577,18.4529 C30.9687,19.3399 30.4297,20.4479 30.5617,21.4139 C30.7147,22.5419 31.6237,23.1669 32.2267,23.3249 C31.7067,22.8509 31.5087,21.6599 32.2407,20.9279 C32.2787,21.8709 32.9587,23.3469 34.5097,23.7609 C36.1597,24.1999 37.9127,23.2649 38.2777,22.6069 C37.6417,22.8949 36.4427,22.5849 35.9487,22.1219 C37.8847,22.3959 39.5977,21.0529 39.5977,19.3319 M26.8287,11.2519 C26.8287,11.2519 26.5827,10.4519 25.7417,10.1419 C25.9067,10.7219 26.1287,11.2519 26.8287,11.2519 M17.4287,11.1379 C18.2597,10.3059 19.9617,9.7899 20.0777,9.3369 C20.1887,8.8909 19.3067,8.1309 18.9777,7.9879 C20.1887,7.9399 20.7927,8.1679 20.7927,8.1679 C20.4757,7.7019 20.3737,6.9889 20.5537,6.4239 C21.2127,8.0079 23.5737,8.2629 24.1587,9.5749 C24.0747,9.0089 23.5387,8.3719 22.9177,8.0009 C22.5837,7.1389 22.8337,5.5499 23.2417,5.1119 C23.0987,7.3959 26.3587,8.7029 27.0347,10.3629 C26.6377,8.9409 25.1187,8.0399 24.3977,7.1889 C24.1597,6.6239 24.3427,5.6659 24.6007,5.3389 C24.5247,6.8689 26.1757,8.0629 27.0587,8.9189 C28.0987,9.9249 28.3937,10.8159 28.2527,11.5439 C28.4807,11.6039 28.7937,11.8259 28.7417,12.2009 C29.0737,12.1239 29.4117,11.7419 29.4937,11.5089 C29.6567,12.6439 28.9887,13.8469 28.2397,14.2049 C28.2397,14.2049 28.4407,13.6629 28.0997,13.2469 C27.7637,12.8389 26.8077,12.8339 26.4857,12.8569 C26.4857,12.8569 26.8817,12.2709 26.7247,11.9729 C26.5287,11.6049 24.6607,11.7669 23.8257,12.0689 C24.1097,12.0389 24.7827,12.1149 25.0177,12.2119 C24.8877,12.4069 24.5447,13.2299 24.7907,13.4769 C25.0177,13.7039 25.3157,13.3109 25.3157,13.3109 C25.3157,13.3109 25.0237,14.2109 25.2337,14.4199 C25.4417,14.6289 25.8887,14.4799 25.8887,14.4799 C25.6107,15.1869 24.5247,15.6729 23.7647,15.6729 C24.0367,15.5869 24.4837,15.1049 24.5517,14.8129 C24.3527,14.9129 23.8337,14.9709 23.6337,14.9339 C23.8787,14.8339 24.3727,14.2009 24.2197,13.4889 C23.9937,12.4509 22.5467,12.3189 21.8187,12.8209 C22.0547,12.1239 22.7597,11.4719 23.3097,11.2589 C22.9877,11.1449 22.6107,11.0499 22.2047,10.9769 C22.6677,10.5969 23.8297,10.2879 24.4237,10.3199 C23.5187,10.0879 21.8637,10.3779 21.1057,11.2729 C21.3467,11.2729 21.9717,11.3909 22.2117,11.4679 C21.1737,11.6559 19.7597,12.6229 19.3427,13.0789 C19.4527,12.4779 19.6207,11.9689 19.4787,11.6079 C19.2787,11.0979 18.6597,10.8839 17.4287,11.1379 M19.3447,5.7979 C19.1657,3.8339 20.1007,2.7479 20.5227,2.3179 C21.4507,1.3709 22.7007,0.7999 24.5467,0.8989 C27.4617,1.0549 28.8607,3.0559 28.8607,5.2119 C28.8607,6.2519 28.3317,7.6429 27.5987,8.6299 C27.5547,8.5849 27.5167,8.5409 27.4697,8.4959 C27.3247,8.3559 27.1597,8.2059 26.9847,8.0469 C26.5057,7.6129 25.9647,7.1159 25.6017,6.5799 C26.3997,5.1269 25.9437,3.0679 24.2567,3.0679 C23.2697,3.0679 22.4457,3.9729 22.5157,5.1739 C22.2587,5.7419 22.1327,6.5649 22.1817,7.2959 C21.6987,6.9919 21.2897,6.6589 21.0987,6.1969 L20.4787,4.7109 L19.9907,6.2449 C19.8747,6.6099 19.8487,7.0189 19.9027,7.4139 C19.8997,7.4139 19.8957,7.4139 19.8927,7.4129 C19.6717,7.0799 19.4127,6.5489 19.3447,5.7979" id="Fill-563" fill="#000000"></path>
            </g>
            <g id="Spell-Banner" transform="translate(250.000000, 20.000000)">
                <polygon id="Stroke-830" stroke="#000000" stroke-width="1.25" points="2.514 67.889 316.408 67.889 316.408 7.247 2.514 7.247"></polygon>
                <g id="Group-841" transform="translate(2.000000, 0.000000)">
                    <path d="M0.5137,15.135 C0.5137,15.135 1.5807,4.802 8.9147,4.802 L30.9147,4.802 C30.9147,4.802 38.0807,7.247 51.4147,7.247 M0.5127,60.001 C0.5127,60.001 1.5797,70.334 8.9137,70.334 L30.9137,70.334 C30.9137,70.334 38.0797,67.889 51.4137,67.889" id="Stroke-831" stroke="#000000" stroke-width="1.25"></path>
                    <path d="M314.4077,15.135 C314.4077,15.135 313.3407,4.802 306.0067,4.802 L284.0067,4.802 C284.0067,4.802 276.8407,7.247 263.5067,7.247 M314.4087,60.001 C314.4087,60.001 313.3417,70.334 306.0077,70.334 L284.0077,70.334 C284.0077,70.334 276.8417,67.889 263.5077,67.889" id="Stroke-833" stroke="#000000" stroke-width="1.25"></path>
                    <path d="M292.5093,7.2483 C287.3073,8.1553 281.0443,9.1713 275.3033,9.1713 L39.6183,9.1713 C33.8773,9.1713 27.6143,8.1553 22.4123,7.2483 M22.4123,67.8893 C27.6143,66.9813 33.8773,65.9663 39.6183,65.9663 L275.3033,65.9663 C281.0443,65.9663 287.3073,66.9813 292.5093,67.8893" id="Stroke-835" stroke="#000000" stroke-width="0.75"></path>
                    <path d="M316.5054,0.9387 L316.5064,74.1967 C315.4584,71.6807 314.4084,70.6317 314.4084,70.6317 L314.4074,4.5027 C314.4074,4.5027 315.4574,3.4567 316.5054,0.9387" id="Fill-837" fill="#FFFFFF"></path>
                    <path d="M316.5054,0.9387 L316.5064,74.1967 C315.4584,71.6807 314.4084,70.6317 314.4084,70.6317 L314.4074,4.5027 C314.4074,4.5027 315.4574,3.4567 316.5054,0.9387 Z" id="Stroke-839" stroke="#000000" stroke-width="1.25"></path>
                </g>
                <g id="Spellcasing" transform="translate(20.000000, 13.000000)">
                    <g id="Group">
                        <polygon id="Fill-842" fill="#FFFFFF" points="67.9741 0.9734 6.4371 0.9734 0.1001 8.9504 0.1001 25.5464 6.4351 33.5224 67.9761 33.5224 74.3121 25.5464 74.3121 8.9504"></polygon>
                        <polygon id="Stroke-843" stroke="#000000" stroke-width="1.375" points="67.9741 0.9734 6.4371 0.9734 0.1001 8.9504 0.1001 25.5464 6.4351 33.5224 67.9761 33.5224 74.3121 25.5464 74.3121 8.9504"></polygon>
                        <path d="M2.0097,6.5446 L2.0097,28.2686 M2.0097,25.2086 L8.7257,33.5226 M8.7247,0.9736 L2.0087,9.2866" id="Stroke-844" stroke="#000000" stroke-width="0.6"></path>
                        <g id="Group-849" transform="translate(1.000000, 16.000000)" fill="#000000">
                            <path d="M0.0595,1.2468 C0.0595,1.7718 0.4855,2.1978 1.0095,2.1978 C1.5345,2.1978 1.9595,1.7718 1.9595,1.2468 C1.9595,0.7238 1.5345,0.2978 1.0095,0.2978 C0.4855,0.2978 0.0595,0.7238 0.0595,1.2468" id="Fill-845"></path>
                            <path d="M72.352,1.2468 C72.352,1.7718 71.926,2.1978 71.402,2.1978 C70.877,2.1978 70.452,1.7718 70.452,1.2468 C70.452,0.7238 70.877,0.2978 71.402,0.2978 C71.926,0.2978 72.352,0.7238 72.352,1.2468" id="Fill-847"></path>
                        </g>
                        <path d="M72.4018,6.5446 L72.4018,28.2686 M72.4018,25.2086 L65.6858,33.5226 M65.6868,0.9736 L72.4028,9.2866" id="Stroke-850" stroke="#000000" stroke-width="0.6"></path>
                    </g>
                    <text id="SPELLCASTING" font-family="LucidaGrande, Lucida Grande" font-size="6" font-weight="normal" fill="#000000">
                        <tspan x="16" y="41">SPELLCASTING</tspan>
                    </text>
                    <text id="ABILITY" font-family="LucidaGrande, Lucida Grande" font-size="6" font-weight="normal" fill="#000000">
                        <tspan x="26" y="47">ABILITY</tspan>
                    </text>
                </g>
                <g id="Spell-Save" transform="translate(120.000000, 13.000000)">
                    <g id="Group-2">
                        <polygon id="Fill-851" fill="#FFFFFF" points="68.6852 0.9734 7.1482 0.9734 0.8112 8.9504 0.8112 25.5464 7.1462 33.5224 68.6872 33.5224 75.0232 25.5464 75.0232 8.9504"></polygon>
                        <polygon id="Stroke-852" stroke="#000000" stroke-width="1.375" points="68.6852 0.9734 7.1482 0.9734 0.8112 8.9504 0.8112 25.5464 7.1462 33.5224 68.6872 33.5224 75.0232 25.5464 75.0232 8.9504"></polygon>
                        <path d="M2.7209,6.5446 L2.7209,28.2686 M2.7209,25.2086 L9.4369,33.5226 M9.4359,0.9736 L2.7199,9.2866" id="Stroke-853" stroke="#000000" stroke-width="0.6"></path>
                        <g id="Group-858" transform="translate(1.000000, 16.000000)" fill="#000000">
                            <path d="M0.7707,1.2468 C0.7707,1.7718 1.1967,2.1978 1.7207,2.1978 C2.2457,2.1978 2.6707,1.7718 2.6707,1.2468 C2.6707,0.7238 2.2457,0.2978 1.7207,0.2978 C1.1967,0.2978 0.7707,0.7238 0.7707,1.2468" id="Fill-854"></path>
                            <path d="M73.0632,1.2468 C73.0632,1.7718 72.6372,2.1978 72.1132,2.1978 C71.5882,2.1978 71.1632,1.7718 71.1632,1.2468 C71.1632,0.7238 71.5882,0.2978 72.1132,0.2978 C72.6372,0.2978 73.0632,0.7238 73.0632,1.2468" id="Fill-856"></path>
                        </g>
                        <path d="M73.1129,6.5446 L73.1129,28.2686 M73.1129,25.2086 L66.3969,33.5226 M66.3979,0.9736 L73.1139,9.2866" id="Stroke-859" stroke="#000000" stroke-width="0.6"></path>
                    </g>
                    <text id="SPELL-SAVE-DC" font-family="LucidaGrande, Lucida Grande" font-size="6" font-weight="normal" fill="#000000">
                        <tspan x="17" y="41">SPELL SAVE DC</tspan>
                    </text>
                </g>
                <g id="Spell-Attack" transform="translate(224.000000, 13.000000)">
                    <g id="Group-3">
                        <polygon id="Fill-860" fill="#FFFFFF" points="68.4838 0.9734 6.9468 0.9734 0.6098 8.9504 0.6098 25.5464 6.9448 33.5224 68.4858 33.5224 74.8218 25.5464 74.8218 8.9504"></polygon>
                        <polygon id="Stroke-861" stroke="#000000" stroke-width="1.375" points="68.4838 0.9734 6.9468 0.9734 0.6098 8.9504 0.6098 25.5464 6.9448 33.5224 68.4858 33.5224 74.8218 25.5464 74.8218 8.9504"></polygon>
                        <path d="M2.5194,6.5446 L2.5194,28.2686 M2.5194,25.2086 L9.2354,33.5226 M9.2344,0.9736 L2.5184,9.2866" id="Stroke-862" stroke="#000000" stroke-width="0.6"></path>
                        <g id="Group-867" transform="translate(1.000000, 16.000000)" fill="#000000">
                            <path d="M0.5692,1.2468 C0.5692,1.7718 0.9952,2.1978 1.5192,2.1978 C2.0442,2.1978 2.4692,1.7718 2.4692,1.2468 C2.4692,0.7238 2.0442,0.2978 1.5192,0.2978 C0.9952,0.2978 0.5692,0.7238 0.5692,1.2468" id="Fill-863"></path>
                            <path d="M72.8617,1.2468 C72.8617,1.7718 72.4357,2.1978 71.9117,2.1978 C71.3867,2.1978 70.9617,1.7718 70.9617,1.2468 C70.9617,0.7238 71.3867,0.2978 71.9117,0.2978 C72.4357,0.2978 72.8617,0.7238 72.8617,1.2468" id="Fill-865"></path>
                        </g>
                        <path d="M72.9115,6.5446 L72.9115,28.2686 M72.9115,25.2086 L66.1955,33.5226 M66.1965,0.9736 L72.9125,9.2866" id="Stroke-868" stroke="#000000" stroke-width="0.6"></path>
                    </g>
                    <text id="SPELL-ATTACK" font-family="LucidaGrande, Lucida Grande" font-size="6" font-weight="normal" fill="#000000">
                        <tspan x="17" y="41">SPELL ATTACK</tspan>
                    </text>
                    <text id="BONUS" font-family="LucidaGrande, Lucida Grande" font-size="6" font-weight="normal" fill="#000000">
                        <tspan x="28" y="47">BONUS</tspan>
                    </text>
                </g>
                <g id="Group-812">
                    <path d="M0.416,0.9387 L0.415,74.1967 C1.463,71.6807 2.513,70.6317 2.513,70.6317 L2.514,4.5027 C2.514,4.5027 1.464,3.4567 0.416,0.9387" id="Fill-808" fill="#FFFFFF"></path>
                    <path d="M0.416,0.9387 L0.415,74.1967 C1.463,71.6807 2.513,70.6317 2.513,70.6317 L2.514,4.5027 C2.514,4.5027 1.464,3.4567 0.416,0.9387 Z" id="Stroke-810" stroke="#000000" stroke-width="1.25"></path>
                </g>
            </g>
            <text id="SPELLCASTING" font-family="LucidaGrande, Lucida Grande" font-size="6" font-weight="normal" fill="#000000">
                <tspan x="62.12" y="81.8937594">SPELLCASTING</tspan>
            </text>
            <text id="CLASS" font-family="LucidaGrande, Lucida Grande" font-size="6" font-weight="normal" fill="#000000">
                <tspan x="62.12" y="88.8937594">CLASS</tspan>
            </text>
        </g>
        <g id="Spells" transform="translate(21.000000, 120.000000)">
            <path d="M376.048492,13.9857941 C373.951492,11.3377941 371.991492,7.8627941 371.991492,4.0737941 L371.991492,3.3447941 L306.945492,3.3447941 C300.810492,1.5917941 294.324492,0.6877941 287.652492,0.6877941 C280.981492,0.6877941 274.495492,1.5917941 268.357492,3.3447941 L202.939492,3.3447941 L202.939492,4.0737941 C202.939492,7.8627941 200.979492,11.3377941 198.882492,13.9857941 L200.732492,13.9857941 C201.194492,13.3467941 201.647492,12.6807941 202.062492,11.9667941 L203.510492,11.9667941 L203.735492,11.9647941 L203.811492,11.7547941 C203.880492,11.5607941 205.600492,6.9887941 213.213492,6.9887941 L258.612492,6.9887941 C255.893492,8.2637941 253.269492,9.7187941 250.767492,11.3647941 L251.117492,11.8967941 C252.283492,11.1297941 253.479492,10.4107941 254.694492,9.7247941 L320.610492,9.7247941 C321.836492,10.4147941 323.041492,11.1417941 324.215492,11.9147941 L324.565492,11.3817941 C322.055492,9.7297941 319.421492,8.2677941 316.691492,6.9887941 L361.819492,6.9887941 C369.433492,6.9887941 371.152492,11.5607941 371.223492,11.7547941 L371.299492,11.9667941 L372.868492,11.9667941 C373.282492,12.6807941 373.735492,13.3467941 374.198492,13.9857941 L376.048492,13.9857941 Z M204.049492,6.9887941 L208.682492,6.9887941 C204.972492,8.1567941 203.628492,10.5877941 203.297492,11.3307941 L202.404492,11.3307941 C203.126492,9.9857941 203.706492,8.5297941 204.049492,6.9887941 Z M263.869492,4.8027941 C262.888492,5.1607941 261.919492,5.5417941 260.960492,5.9457941 C260.754492,5.7037941 260.458492,5.5437941 260.115492,5.5437941 C259.604492,5.5437941 259.190492,5.8897941 259.051492,6.3537941 L204.194492,6.3537941 C204.284492,5.8447941 204.346492,5.3287941 204.376492,4.8027941 L263.869492,4.8027941 Z M304.479492,3.3447941 L270.826492,3.3447941 C276.222492,2.0097941 281.867492,1.3237941 287.652492,1.3237941 C293.438492,1.3237941 299.083492,2.0097941 304.479492,3.3447941 Z M309.511492,4.8027941 C311.062492,5.3197941 312.587492,5.8957941 314.086492,6.5257941 C314.079492,6.5747941 314.056492,6.6197941 314.056492,6.6717941 C314.056492,7.2937941 314.560492,7.7987941 315.183492,7.7987941 C315.534492,7.7987941 315.833492,7.6317941 316.040492,7.3817941 C317.196492,7.9137941 318.331492,8.4877941 319.450492,9.0887941 L255.855492,9.0887941 C256.973492,8.4887941 258.106492,7.9167941 259.261492,7.3847941 C259.468492,7.6327941 259.767492,7.7987941 260.115492,7.7987941 C260.737492,7.7987941 261.243492,7.2937941 261.243492,6.6717941 C261.243492,6.6207941 261.220492,6.5767941 261.214492,6.5287941 C262.714492,5.8977941 264.242492,5.3217941 265.796492,4.8027941 L309.511492,4.8027941 Z M370.735492,6.3537941 L316.247492,6.3537941 C316.107492,5.8897941 315.694492,5.5437941 315.183492,5.5437941 C314.842492,5.5437941 314.547492,5.7027941 314.340492,5.9427941 C313.383492,5.5397941 312.414492,5.1607941 311.435492,4.8027941 L370.553492,4.8027941 C370.584492,5.3287941 370.646492,5.8447941 370.735492,6.3537941 Z M372.524492,11.3307941 L371.736492,11.3307941 C371.404492,10.5877941 370.062492,8.1567941 366.351492,6.9887941 L370.881492,6.9887941 C371.224492,8.5297941 371.803492,9.9857941 372.524492,11.3307941 Z M198.944492,638.584794 C201.018492,641.221794 202.939492,644.665794 202.939492,648.415794 L202.939492,649.144794 L268.358492,649.144794 C274.495492,650.899794 280.981492,651.802794 287.652492,651.802794 C294.324492,651.802794 300.810492,650.899794 306.949492,649.144794 L371.991492,649.144794 L371.991492,648.415794 C371.991492,644.665794 373.912492,641.221794 375.985492,638.584794 L374.137492,638.584794 C373.694492,639.199794 373.265492,639.840794 372.868492,640.524794 L371.194492,640.525794 L371.119492,640.735794 C371.050492,640.929794 369.329492,645.500794 361.717492,645.500794 L316.691492,645.500794 C319.412492,644.225794 322.036492,642.770794 324.538492,641.125794 L324.188492,640.592794 C323.022492,641.360794 321.826492,642.079794 320.610492,642.765794 L254.694492,642.765794 C253.469492,642.074794 252.264492,641.347794 251.090492,640.575794 L250.740492,641.108794 C253.250492,642.760794 255.884492,644.221794 258.612492,645.500794 L213.109492,645.500794 C205.497492,645.500794 203.777492,640.929794 203.707492,640.735794 L203.631492,640.524794 L202.062492,640.524794 C201.665492,639.840794 201.235492,639.199794 200.792492,638.584794 L198.944492,638.584794 Z M370.881492,645.500794 L366.248492,645.500794 C369.958492,644.333794 371.301492,641.902794 371.633492,641.159794 L372.524492,641.159794 C371.803492,642.503794 371.224492,643.959794 370.881492,645.500794 Z M311.436492,647.686794 C312.416492,647.329794 313.386492,646.948794 314.345492,646.544794 C314.551492,646.785794 314.847492,646.946794 315.190492,646.946794 C315.700492,646.946794 316.113492,646.600794 316.253492,646.136794 L370.735492,646.136794 C370.646492,646.644794 370.584492,647.161794 370.553492,647.686794 L311.436492,647.686794 Z M270.826492,649.144794 L304.479492,649.144794 C299.083492,650.479794 293.438492,651.166794 287.652492,651.166794 C281.867492,651.166794 276.222492,650.479794 270.826492,649.144794 Z M265.794492,647.686794 C264.243492,647.170794 262.717492,646.594794 261.220492,645.964794 C261.226492,645.914794 261.249492,645.870794 261.249492,645.818794 C261.249492,645.196794 260.745492,644.691794 260.121492,644.691794 C259.772492,644.691794 259.472492,644.859794 259.265492,645.109794 C258.108492,644.575794 256.974492,644.002794 255.855492,643.402794 L319.450492,643.402794 C318.332492,644.001794 317.199492,644.572794 316.044492,645.105794 C315.837492,644.858794 315.538492,644.691794 315.190492,644.691794 C314.566492,644.691794 314.062492,645.196794 314.062492,645.818794 C314.062492,645.869794 314.084492,645.912794 314.091492,645.961794 C312.590492,646.592794 311.062492,647.167794 309.509492,647.686794 L265.794492,647.686794 Z M204.194492,646.136794 L259.058492,646.136794 C259.195492,646.600794 259.610492,646.946794 260.121492,646.946794 C260.463492,646.946794 260.758492,646.786794 260.965492,646.547794 C261.922492,646.950794 262.891492,647.329794 263.870492,647.686794 L204.376492,647.686794 C204.346492,647.161794 204.284492,646.644794 204.194492,646.136794 Z M202.404492,641.159794 L203.194492,641.159794 C203.525492,641.902794 204.868492,644.333794 208.579492,645.500794 L204.049492,645.500794 C203.706492,643.959794 203.126492,642.503794 202.404492,641.159794 Z" id="Fill-870" fill="#231F20"></path>
            <polygon id="Stroke-872" stroke="#231F20" fill="#FFFFFF" points="571.2155 16.2221985 566.4395 11.4461985 4.8654999 11.4461985 0.0904999 16.2221985 0.0904999 636.268199 4.8654999 641.045198 566.4395 641.045198 571.2155 636.268199"></polygon>
            <path d="M4.0904999,406.311493 C3.9194999,406.311493 3.7524999,406.329493 3.5904999,406.361493 L3.5904999,411.310493 C3.7524999,411.343493 3.9194999,411.361493 4.0904999,411.361493 C5.4854999,411.361493 6.6144999,410.230493 6.6144999,408.834493 C6.6144999,407.441493 5.4854999,406.311493 4.0904999,406.311493" id="Fill-874" fill="#FFFFFF"></path>
            <path d="M4.0904999,166.337906 C3.9194999,166.337906 3.7524999,166.355906 3.5904999,166.387906 L3.5904999,171.336906 C3.7524999,171.369906 3.9194999,171.387906 4.0904999,171.387906 C5.4854999,171.387906 6.6144999,170.256906 6.6144999,168.861906 C6.6144999,167.467906 5.4854999,166.337906 4.0904999,166.337906" id="Fill-876" fill="#FFFFFF"></path>
            <text id="SPELLS" font-family="LucidaGrande, Lucida Grande" font-size="6.5" font-weight="normal" fill="#000000">
                <tspan x="274.314" y="635.471727">SPELLS</tspan>
            </text>
            <g id="HEADERS" transform="translate(9.000000, 20.000000)" fill="#A7A8A8" font-family="LucidaGrande, Lucida Grande" font-size="6" font-weight="normal">
                <text id="NOTES">
                    <tspan x="398" y="6">NOTES</tspan>
                </text>
                <text id="PAGE-REF">
                    <tspan x="366" y="6">PAGE REF</tspan>
                </text>
                <text id="DURATION">
                    <tspan x="316" y="6">DURATION</tspan>
                </text>
                <text id="COMP">
                    <tspan x="286" y="6">COMP</tspan>
                </text>
                <text id="RANGE">
                    <tspan x="248" y="6">RANGE</tspan>
                </text>
                <text id="TIME" letter-spacing="-0.2942609">
                    <tspan x="225" y="6">TIME </tspan>
                </text>
                <text id="SAVE/ATK" letter-spacing="-0.2942609">
                    <tspan x="192" y="6">SAVE/ATK</tspan>
                </text>
                <text id="SOURCE-" letter-spacing="-0.2942609">
                    <tspan x="116" y="6">SOURCE </tspan>
                </text>
                <text id="SPELL-NAME">
                    <tspan x="19" y="6"> SPELL NAME</tspan>
                </text>
                <text id="PREP">
                    <tspan x="0" y="6">PREP</tspan>
                </text>
            </g>
            <g id="Table" transform="translate(6.000000, 28.000000)" opacity="0.100000001" stroke="#494949" stroke-linecap="square">
                <g id="Group-4">
                    <path d="M1.5,1.33408072 L1.5,593.665919" id="Line"></path>
                    <path d="M22.5,1.33408072 L22.5,593.665919" id="Line"></path>
                    <path d="M117.5,1.33408072 L117.5,593.665919" id="Line"></path>
                    <path d="M194.5,1.33408072 L194.5,593.665919" id="Line"></path>
                    <path d="M226.5,1.33408072 L226.5,593.665919" id="Line"></path>
                    <path d="M249.5,1.33408072 L249.5,593.665919" id="Line"></path>
                    <path d="M288.5,1.33408072 L288.5,593.665919" id="Line"></path>
                    <path d="M316.5,1.33408072 L316.5,593.665919" id="Line"></path>
                    <path d="M367.5,1.33408072 L367.5,593.665919" id="Line"></path>
                    <path d="M399.5,1.33408072 L399.5,593.665919" id="Line"></path>
                    <path d="M556.5,1.33408072 L556.5,593.665919" id="Line"></path>
                </g>
                <g id="Group-3" transform="translate(1.000000, 0.000000)">
                    <path d="M554.801862,163.85 L1.2034632,163.85" id="Line"></path>
                    <path d="M554.801862,149 L1.2034632,149" id="Line"></path>
                    <path d="M554.801862,134.15 L1.2034632,134.15" id="Line"></path>
                    <path d="M554.801862,119.3 L1.2034632,119.3" id="Line"></path>
                    <path d="M554.801862,104.45 L1.2034632,104.45" id="Line"></path>
                    <path d="M554.801862,89.6 L1.2034632,89.6" id="Line"></path>
                    <path d="M554.801862,59.9 L1.2034632,59.9" id="Line"></path>
                    <path d="M554.801862,30.2 L1.2034632,30.2" id="Line"></path>
                    <path d="M554.801862,45.05 L1.2034632,45.05" id="Line"></path>
                    <path d="M554.801862,74.75 L1.2034632,74.75" id="Line"></path>
                    <path d="M554.801862,15.35 L1.2034632,15.35" id="Line"></path>
                    <path d="M554.801862,0.5 L1.2034632,0.5" id="Line"></path>
                    <path d="M554.801862,342.05 L1.2034632,342.05" id="Line"></path>
                    <path d="M554.801862,327.2 L1.2034632,327.2" id="Line"></path>
                    <path d="M554.801862,312.35 L1.2034632,312.35" id="Line"></path>
                    <path d="M554.801862,297.5 L1.2034632,297.5" id="Line"></path>
                    <path d="M554.801862,282.65 L1.2034632,282.65" id="Line"></path>
                    <path d="M554.801862,267.8 L1.2034632,267.8" id="Line"></path>
                    <path d="M554.801862,238.1 L1.2034632,238.1" id="Line"></path>
                    <path d="M554.801862,208.4 L1.2034632,208.4" id="Line"></path>
                    <path d="M554.801862,223.25 L1.2034632,223.25" id="Line"></path>
                    <path d="M554.801862,252.95 L1.2034632,252.95" id="Line"></path>
                    <path d="M554.801862,193.55 L1.2034632,193.55" id="Line"></path>
                    <path d="M554.801862,178.7 L1.2034632,178.7" id="Line"></path>
                    <path d="M554.801862,520.25 L1.2034632,520.25" id="Line"></path>
                    <path d="M554.801862,505.4 L1.2034632,505.4" id="Line"></path>
                    <path d="M554.801862,490.55 L1.2034632,490.55" id="Line"></path>
                    <path d="M554.801862,475.7 L1.2034632,475.7" id="Line"></path>
                    <path d="M554.801862,579.65 L1.2034632,579.65" id="Line"></path>
                    <path d="M554.801862,594.5 L1.2034632,594.5" id="Line"></path>
                    <path d="M554.801862,564.8 L1.2034632,564.8" id="Line"></path>
                    <path d="M554.801862,549.95 L1.2034632,549.95" id="Line"></path>
                    <path d="M554.801862,535.1 L1.2034632,535.1" id="Line"></path>
                    <path d="M554.801862,460.85 L1.2034632,460.85" id="Line"></path>
                    <path d="M554.801862,446 L1.2034632,446" id="Line"></path>
                    <path d="M554.801862,416.3 L1.2034632,416.3" id="Line"></path>
                    <path d="M554.801862,386.6 L1.2034632,386.6" id="Line"></path>
                    <path d="M554.801862,401.45 L1.2034632,401.45" id="Line"></path>
                    <path d="M554.801862,431.15 L1.2034632,431.15" id="Line"></path>
                    <path d="M554.801862,371.75 L1.2034632,371.75" id="Line"></path>
                    <path d="M554.801862,356.9 L1.2034632,356.9" id="Line"></path>
                </g>
            </g>
        </g>
        <text id="TM-&amp;--2014-Wizards" font-family="LucidaGrande, Lucida Grande" font-size="5.5" font-weight="normal" letter-spacing="0.1021" fill="#C9CACB">
            <tspan x="174.516" y="782.202361">T</tspan>
            <tspan x="178.095883" y="782.202361" letter-spacing="-0.02">M &amp;  </tspan>
            <tspan x="196.47393" y="782.202361" letter-spacing="0.0823">2</tspan>
            <tspan x="200.034013" y="782.202361" letter-spacing="0.18625">0</tspan>
            <tspan x="203.698046" y="782.202361" letter-spacing="0.1197">1</tspan>
            <tspan x="207.29553" y="782.202361" letter-spacing="-0.02">4 </tspan>
            <tspan x="212.473547" y="782.202361" letter-spacing="0.1153">W</tspan>
            <tspan x="217.293925" y="782.202361" letter-spacing="0.05645">i</tspan>
            <tspan x="218.940219" y="782.202361" letter-spacing="0.08615">z</tspan>
            <tspan x="222.179201" y="782.202361" letter-spacing="0.12685">a</tspan>
            <tspan x="225.343405" y="782.202361" letter-spacing="0.0416">r</tspan>
            <tspan x="227.635493" y="782.202361" letter-spacing="0.1109">d</tspan>
            <tspan x="231.208063" y="782.202361" letter-spacing="-0.02">s </tspan>
            <tspan x="235.712008" y="782.202361" letter-spacing="0.05645">o</tspan>
            <tspan x="239.146876" y="782.202361" letter-spacing="-0.02">f </tspan>
            <tspan x="242.869327" y="782.202361" letter-spacing="0.04875">t</tspan>
            <tspan x="244.975206" y="782.202361" letter-spacing="0.1351">h</tspan>
            <tspan x="248.523636" y="782.202361" letter-spacing="-0.02">e </tspan>
            <tspan x="253.28808" y="782.202361" letter-spacing="0.09825">C</tspan>
            <tspan x="257.19175" y="782.202361" letter-spacing="0.1329">o</tspan>
            <tspan x="260.703068" y="782.202361" letter-spacing="0.10815">a</tspan>
            <tspan x="263.848571" y="782.202361" letter-spacing="0.13565">s</tspan>
            <tspan x="266.787932" y="782.202361" letter-spacing="-0.02">t </tspan>
            <tspan x="270.545295" y="782.202361" letter-spacing="0.07735">L</tspan>
            <tspan x="273.555262" y="782.202361" letter-spacing="-0.0464">L</tspan>
            <tspan x="276.44148" y="782.202361" letter-spacing="0.2286">C</tspan>
            <tspan x="280.4755" y="782.202361" letter-spacing="-0.02">. </tspan>
            <tspan x="283.915968" y="782.202361" letter-spacing="0.11255">P</tspan>
            <tspan x="287.068557" y="782.202361" letter-spacing="0.11475">e</tspan>
            <tspan x="290.247516" y="782.202361" letter-spacing="0.1131">r</tspan>
            <tspan x="292.611105" y="782.202361" letter-spacing="0.10595">m</tspan>
            <tspan x="297.85182" y="782.202361" letter-spacing="0.0878">i</tspan>
            <tspan x="299.529464" y="782.202361" letter-spacing="0.123">s</tspan>
            <tspan x="302.456175" y="782.202361" letter-spacing="0.06305">s</tspan>
            <tspan x="305.322936" y="782.202361" letter-spacing="0.10375">i</tspan>
            <tspan x="307.01653" y="782.202361" letter-spacing="0.1351">o</tspan>
            <tspan x="310.530048" y="782.202361" letter-spacing="-0.02">n </tspan>
            <tspan x="315.643612" y="782.202361" letter-spacing="0.0878">i</tspan>
            <tspan x="317.321256" y="782.202361" letter-spacing="-0.02">s </tspan>
            <tspan x="321.825201" y="782.202361" letter-spacing="0.1219">g</tspan>
            <tspan x="325.376545" y="782.202361" letter-spacing="0.06415">r</tspan>
            <tspan x="327.691183" y="782.202361" letter-spacing="0.12685">a</tspan>
            <tspan x="330.855386" y="782.202361" letter-spacing="0.08285">n</tspan>
            <tspan x="334.351566" y="782.202361" letter-spacing="0.00915">t</tspan>
            <tspan x="336.417845" y="782.202361" letter-spacing="0.13565">e</tspan>
            <tspan x="339.617704" y="782.202361" letter-spacing="-0.02">d </tspan>
            <tspan x="344.779609" y="782.202361" letter-spacing="0.0042">t</tspan>
            <tspan x="346.840937" y="782.202361" letter-spacing="-0.02">o </tspan>
            <tspan x="351.91959" y="782.202361" letter-spacing="0.1428">p</tspan>
            <tspan x="355.52406" y="782.202361" letter-spacing="0.12685">h</tspan>
            <tspan x="359.06424" y="782.202361" letter-spacing="0.0768">o</tspan>
            <tspan x="362.519458" y="782.202361" letter-spacing="0.0042">t</tspan>
            <tspan x="364.580787" y="782.202361" letter-spacing="0.14005">o</tspan>
            <tspan x="368.099255" y="782.202361" letter-spacing="0.03225">c</tspan>
            <tspan x="370.948643" y="782.202361" letter-spacing="0.1351">o</tspan>
            <tspan x="374.462161" y="782.202361" letter-spacing="0.0416">p</tspan>
            <tspan x="377.965431" y="782.202361" letter-spacing="-0.02">y </tspan>
            <tspan x="382.539201" y="782.202361" letter-spacing="0.04875">t</tspan>
            <tspan x="384.64508" y="782.202361" letter-spacing="0.101">h</tspan>
            <tspan x="388.15941" y="782.202361" letter-spacing="0.0878">i</tspan>
            <tspan x="389.837054" y="782.202361" letter-spacing="-0.02">s </tspan>
            <tspan x="394.340999" y="782.202361" letter-spacing="0.13565">d</tspan>
            <tspan x="397.938319" y="782.202361" letter-spacing="0.1406">o</tspan>
            <tspan x="401.457337" y="782.202361" letter-spacing="0.09605">c</tspan>
            <tspan x="404.370525" y="782.202361" letter-spacing="0.1219">u</tspan>
            <tspan x="407.905755" y="782.202361" letter-spacing="0.14005">m</tspan>
            <tspan x="413.180571" y="782.202361" letter-spacing="0.11475">e</tspan>
            <tspan x="416.35953" y="782.202361" letter-spacing="0.08285">n</tspan>
            <tspan x="419.85571" y="782.202361" letter-spacing="-0.02">t </tspan>
            <tspan x="423.613073" y="782.202361" letter-spacing="-0.00075">f</tspan>
            <tspan x="425.63454" y="782.202361" letter-spacing="0.13565">o</tspan>
            <tspan x="429.148608" y="782.202361" letter-spacing="-0.02">r </tspan>
            <tspan x="433.099331" y="782.202361" letter-spacing="0.16095">p</tspan>
            <tspan x="436.721951" y="782.202361" letter-spacing="0.1153">e</tspan>
            <tspan x="439.90146" y="782.202361" letter-spacing="0.1076">r</tspan>
            <tspan x="442.259548" y="782.202361" letter-spacing="0.1087">s</tspan>
            <tspan x="445.171959" y="782.202361" letter-spacing="0.1351">o</tspan>
            <tspan x="448.685477" y="782.202361" letter-spacing="0.0966">n</tspan>
            <tspan x="452.195407" y="782.202361" letter-spacing="0.11475">a</tspan>
            <tspan x="455.347511" y="782.202361" letter-spacing="-0.02">l </tspan>
            <tspan x="458.637589" y="782.202361" letter-spacing="0.11145">u</tspan>
            <tspan x="462.162369" y="782.202361" letter-spacing="0.10815">s</tspan>
            <tspan x="465.07423" y="782.202361" letter-spacing="0.1043">e</tspan>
            <tspan x="468.242739" y="782.202361" letter-spacing="-0.02">.</tspan>
        </text>
        <g id="VARS" transform="translate(32.000000, 61.000000)" fill="#272727" font-family="LucidaGrande, Lucida Grande" font-weight="normal">
            <g id="header" transform="translate(19.000000, 0.000000)" font-size="12">
                <text id="{spellcasting-class}">
                    <tspan x="0" y="17">{spellcasting-class}</tspan>
                </text>
                <text id="spellcasting-ability">
                    <tspan x="262.02832" y="12">-</tspan>
                </text>
                <text id="spell-save-dc">
                    <tspan x="363.02832" y="12">-</tspan>
                </text>
                <text id="spell-attack-bonus">
                    <tspan x="467.02832" y="12">-</tspan>
                </text>
            </g>
            <g id="spells" transform="translate(0.000000, 92.000000)" font-size="6">
                <text>
                    <tspan x="0" y="6">Spell</tspan>
                    <tspan x="0" y="20.8000002">Spell</tspan>
                    <tspan x="0" y="35.6000004">Spell</tspan>
                    <tspan x="0" y="50.4000006">Spell</tspan>
                    <tspan x="0" y="65.2000008">Spell</tspan>
                    <tspan x="0" y="80.000001">Spell</tspan>
                    <tspan x="0" y="94.8000011">Spell</tspan>
                    <tspan x="0" y="109.600001">Spell</tspan>
                    <tspan x="0" y="124.400002">Spell</tspan>
                    <tspan x="0" y="139.200002">Spell</tspan>
                    <tspan x="0" y="154.000002">Spell</tspan>
                    <tspan x="0" y="168.800002">Spell</tspan>
                    <tspan x="0" y="183.600002">Spell</tspan>
                    <tspan x="0" y="198.400002">Spell</tspan>
                    <tspan x="0" y="213.200003">Spell</tspan>
                    <tspan x="0" y="228.000003">Spell</tspan>
                    <tspan x="0" y="242.800003">Spell</tspan>
                    <tspan x="0" y="257.600003">Spell</tspan>
                    <tspan x="0" y="272.400003">Spell</tspan>
                    <tspan x="0" y="287.200004">Spell</tspan>
                    <tspan x="0" y="302.000004">Spell</tspan>
                    <tspan x="0" y="316.800004">Spell</tspan>
                    <tspan x="0" y="331.600004">Spell</tspan>
                    <tspan x="0" y="346.400004">Spell</tspan>
                    <tspan x="0" y="361.200005">Spell</tspan>
                    <tspan x="0" y="376.000005">Spell</tspan>
                    <tspan x="0" y="390.800005">Spell</tspan>
                    <tspan x="0" y="405.600005">Spell</tspan>
                    <tspan x="0" y="420.400005">Spell</tspan>
                    <tspan x="0" y="435.200006">Spell</tspan>
                    <tspan x="0" y="450.000006">Spell</tspan>
                    <tspan x="0" y="464.800006">Spell</tspan>
                    <tspan x="0" y="479.600006">Spell</tspan>
                    <tspan x="0" y="494.400006">Spell</tspan>
                    <tspan x="0" y="509.200006">Spell</tspan>
                    <tspan x="0" y="524.000007">Spell</tspan>
                    <tspan x="0" y="538.800007">Spell</tspan>
                    <tspan x="0" y="553.600007">Spell</tspan>
                    <tspan x="0" y="568.400007">Spell</tspan>
                    <tspan x="0" y="583.200007">Spell</tspan>
                </text>
            </g>
        </g>
    </g>
</svg>